<svg  display="none" xmlns="http://www.w3.org/2000/svg">

    <!-- svg-x -->
    <symbol id="svg-x" viewBox="0 0 28 28">
        <g>
           <path fill-rule="evenodd" clip-rule="evenodd" d="M18.3312 9.66879C17.9891 9.32754 17.4352 9.32754 17.094 9.66879L14 12.7662L10.906 9.66879C10.5648 9.32754 10.0109 9.32754 9.66875 9.66879C9.3275 10.01 9.3275 10.5612 9.66875 10.9025L12.7627 14L9.66875 17.0975C9.3275 17.4388 9.3275 17.99 9.66875 18.3312C10.0109 18.6725 10.5648 18.6725 10.906 18.3312L14 15.2338L17.094 18.3312C17.4352 18.6725 17.9891 18.6725 18.3312 18.3312C18.6725 17.99 18.6725 17.4388 18.3312 17.0975L15.2373 14L18.3312 10.9025C18.6725 10.5612 18.6725 10.01 18.3312 9.66879ZM26.25 24.5C26.25 25.4625 25.466 26.25 24.5 26.25H3.5C2.534 26.25 1.75 25.4625 1.75 24.5V3.5C1.75 2.5375 2.534 1.75 3.5 1.75H24.5C25.466 1.75 26.25 2.5375 26.25 3.5V24.5ZM24.5 0H3.5C1.56712 0 0 1.56625 0 3.5V24.5C0 26.4338 1.56712 28 3.5 28H24.5C26.4329 28 28 26.4338 28 24.5V3.5C28 1.56625 26.4329 0 24.5 0Z" />
        </g>
    </symbol>


    <!-- svg arrow emp-->
    
    <symbol id="svg-arrow-emp" viewBox="0 0 50 32">
        <g>
            <path d="M24.9986 31.0399C23.6425 31.0399 22.3677 30.5108 21.4087 29.5528L1.48422 9.62608C-0.49474 7.64712 -0.49474 4.42615 1.48422 2.44719C2.44325 1.48816 3.71808 0.960114 5.07542 0.960114C6.43277 0.960114 7.7076 1.48816 8.6654 2.44719L24.9986 18.7827L41.3331 2.44719C42.2921 1.48816 43.5659 0.960114 44.9231 0.960114C46.2803 0.960114 47.554 1.48816 48.5131 2.44719C49.4731 3.40621 50.0001 4.68105 50.0001 6.03716C50.0001 7.39328 49.4721 8.66811 48.5131 9.62714L28.5897 29.5495C27.6296 30.5118 26.3535 31.0399 24.9986 31.0399ZM5.07525 3.21662C4.32162 3.21662 3.6131 3.50996 3.07943 4.0424C1.97944 5.14239 1.97944 6.93176 3.07943 8.03069L23.0039 27.9564C24.06 29.0125 25.8887 29.026 26.9572 27.989L46.9154 8.03087C47.4491 7.4972 47.7412 6.78974 47.7412 6.03611C47.7412 5.28248 47.4478 4.57502 46.9154 4.04135C45.8493 2.97629 43.9932 2.97629 42.9271 4.04135L24.9986 21.9733L7.07001 4.04258C6.53634 3.50996 5.82888 3.21662 5.07525 3.21662Z"/>
        </g>
    </symbol>


    <!-- svg arrow vert-->
    
    <symbol id="svg-arrow-vert" viewBox="0 0 12 50">
        <g>
            <path d="M6 1.66666V48.3333"  stroke-width="2" stroke-linecap="round" stroke-linejoin="round"/>
            <path d="M11 15L6 1.66666"  stroke-width="2" stroke-linecap="round" stroke-linejoin="round"/>
            <path d="M1 15L6 1.66666"  stroke-width="2" stroke-linecap="round" stroke-linejoin="round"/>
        </g>
    </symbol>


    <!-- svg arrow goris-->
    
    <symbol id="svg-arrow-goris" viewBox="0 0 52 27">
        <g>
            <path d="M1.33337 13.1667H51.3334M51.3334 13.1667L38.8334 0.666687M51.3334 13.1667L38.8334 25.6667" stroke-linecap="round" stroke-linejoin="round"/>
        </g>
    </symbol>


    <!-- svg arrow diamond-->
    
    <symbol id="svg-diamond" viewBox="0 0 56 78">
        <g>
            <path d="M54.6661 40.7628C54.6649 40.7638 54.6626 40.7663 54.6614 40.7675L54.6626 40.7663L54.6661 40.7628Z" fill="black"/>
            <path d="M1.34111 40.7698L1.34538 40.7734C1.34294 40.771 1.34233 40.7698 1.34005 40.7687C1.33822 40.7663 1.33532 40.7638 1.3335 40.7628L1.34111 40.7698Z"/>
            <path d="M55.5214 38.5405C55.4192 38.1766 55.3169 38.0218 55.1919 37.8198C55.063 37.6307 54.9205 37.4466 54.666 37.236C54.028 36.722 53.1684 35.8951 52.1931 34.8483C48.7598 31.1727 43.8551 24.8058 39.528 18.4273C37.3625 15.2373 35.3351 12.0393 33.6963 9.16942C32.0571 6.30551 30.8059 3.74888 30.2057 1.96021L30.205 1.95899C30.0917 1.64013 29.9936 1.33286 29.7236 0.932345C29.5861 0.735059 29.3864 0.502278 29.0768 0.308649C28.7719 0.112583 28.3567 -0.00441707 27.998 0.000305584C27.6365 -0.00441707 27.22 0.114868 26.9164 0.311087C26.4527 0.611204 26.2453 0.957329 26.1006 1.21845C25.9589 1.48779 25.875 1.72179 25.7935 1.9628L25.7941 1.95914C25.1076 4.00786 23.5712 7.04651 21.5775 10.4183C18.585 15.4891 14.5603 21.3752 10.7514 26.4106C8.84676 28.9283 6.99487 31.2356 5.36022 33.1177C3.73105 34.9964 2.29552 36.4626 1.33332 37.2363L1.33743 37.2328L1.33926 37.2316C1.0428 37.475 0.891519 37.6865 0.750753 37.9086C0.682808 38.0209 0.622631 38.1342 0.563674 38.2819L0.476838 38.5465C0.45094 38.6565 0.421994 38.7887 0.420166 39.0002C0.421994 39.2116 0.450939 39.344 0.477447 39.4538C0.576623 39.8143 0.678237 39.9724 0.804682 40.1769C0.934022 40.367 1.07981 40.5573 1.33987 40.7689C1.97712 41.2827 2.83314 42.1074 3.80601 43.1506C7.23923 46.8261 12.1435 53.193 16.4706 59.5716C18.6362 62.7617 20.6636 65.9609 22.303 68.8295C23.9416 71.6934 25.1934 74.2501 25.7941 76.0399L25.7965 76.0471L25.7935 76.0377C25.907 76.359 26.0055 76.6662 26.2738 77.0667C26.4109 77.2628 26.6087 77.4944 26.9166 77.6894C27.2202 77.8854 27.6367 78.0049 27.9982 78.0001C28.3568 78.0049 28.7721 77.8879 29.0769 77.6918C29.543 77.3929 29.7533 77.0443 29.8975 76.7832C30.0398 76.5127 30.1231 76.2799 30.2052 76.0413L30.2058 76.0401C30.8917 73.9928 32.4282 70.9527 34.4218 67.5809C37.4132 62.5112 41.4384 56.624 45.2479 51.5888C47.1524 49.0711 49.0038 46.7637 50.6391 44.8817C52.2652 43.0054 53.6984 41.5429 54.6613 40.7678L54.6582 40.769C54.953 40.5268 55.103 40.3188 55.2437 40.099C55.3122 39.9869 55.3732 39.8734 55.4333 39.7268C55.4629 39.6525 55.493 39.5696 55.5214 39.4598C55.5479 39.3499 55.5781 39.2153 55.5799 39.0002C55.5782 38.7849 55.548 38.6504 55.5214 38.5405ZM49.7163 40.8394C46.0768 44.7431 41.1401 51.1689 36.7257 57.6681C34.5205 60.9169 32.4524 64.1791 30.7552 67.1493C29.654 69.0786 28.7331 70.8568 28.0041 72.473C27.1157 70.5035 25.9147 68.2693 24.4946 65.8591C21.4116 60.6371 17.3349 54.6778 13.4527 49.5445C11.5109 46.9784 9.61944 44.6201 7.91761 42.6601C6.63975 41.1916 5.48255 39.9534 4.45484 38.9965C5.02537 38.4648 5.63032 37.8576 6.28251 37.1594C9.92261 33.2559 14.8593 26.8299 19.2732 20.3307C21.4783 17.0817 23.5466 13.8208 25.2443 10.8496C26.3448 8.92034 27.2663 7.14218 27.9953 5.52597C28.8838 7.49668 30.0847 9.72959 31.5042 12.1398C34.5872 17.3619 38.6638 23.3211 42.5467 28.4545C44.4879 31.0205 46.38 33.3788 48.0812 35.3389C49.3591 36.8073 50.5161 38.0456 51.544 39.0026C50.9733 39.5329 50.3685 40.1414 49.7163 40.8394Z" />
            <path d="M54.6648 37.235L54.666 37.236L54.6861 37.2526L54.6648 37.235Z"/>
        </g>
    </symbol>


</svg>
