<?xml version="1.0" standalone="no"?>
<!DOCTYPE svg PUBLIC "-//W3C//DTD SVG 20010904//EN"
 "http://www.w3.org/TR/2001/REC-SVG-20010904/DTD/svg10.dtd">
<svg version="1.0" xmlns="http://www.w3.org/2000/svg"
 width="260.000000pt" height="260.000000pt" viewBox="0 0 260.000000 260.000000"
 preserveAspectRatio="xMidYMid meet">
<metadata>
Created by potrace 1.14, written by Peter Selinger 2001-2017
</metadata>
<g transform="translate(0.000000,260.000000) scale(0.100000,-0.100000)"
fill="#000000" stroke="none">
<path d="M0 1300 l0 -1300 1300 0 1300 0 0 1300 0 1300 -1300 0 -1300 0 0
-1300z m1857 954 c178 -26 297 -81 402 -185 154 -153 200 -389 108 -564 -63
-120 -196 -221 -357 -273 -76 -24 -100 -27 -230 -27 -128 0 -152 3 -207 24
-34 12 -66 21 -71 20 -5 -2 -35 -53 -66 -113 -31 -59 -82 -147 -113 -195 -68
-103 -198 -236 -270 -276 -28 -16 -50 -32 -47 -36 2 -4 91 -7 196 -7 196 0
423 21 563 51 39 8 92 18 119 22 61 8 59 2 -21 -95 l-58 -70 -736 0 c-697 0
-738 1 -759 18 -16 13 -21 24 -16 39 9 28 75 92 102 99 11 3 63 -2 115 -11
206 -36 326 -52 364 -48 112 11 175 51 241 154 58 89 91 163 209 462 118 298
201 469 295 610 72 108 203 250 240 262 63 20 -44 54 -195 62 -299 15 -547
-56 -704 -202 -82 -76 -133 -155 -167 -258 -19 -56 -38 -92 -60 -115 -30 -30
-38 -33 -85 -30 -74 4 -82 22 -45 96 20 38 65 92 135 162 218 217 502 369 786
420 126 23 200 24 332 4z"/>
<path d="M1870 2083 c-43 -51 -151 -277 -246 -512 l-78 -193 25 -19 c45 -36
185 -99 245 -110 211 -40 379 73 430 287 38 161 -18 339 -145 464 -51 49 -162
120 -189 120 -6 0 -25 -17 -42 -37z"/>
</g>
</svg>
